<?xml version="1.0" encoding="UTF-8" standalone="no"?>
<!DOCTYPE svg PUBLIC "-//W3C//DTD SVG 1.1//EN" "http://www.w3.org/Graphics/SVG/1.1/DTD/svg11.dtd">
<svg width="100%" height="100%" viewBox="0 0 1683 420" version="1.1" xmlns="http://www.w3.org/2000/svg" xmlns:xlink="http://www.w3.org/1999/xlink" xml:space="preserve" xmlns:serif="http://www.serif.com/" style="fill-rule:evenodd;clip-rule:evenodd;stroke-linecap:round;stroke-linejoin:round;stroke-miterlimit:1.5;">
    <g transform="matrix(1,0,0,1,-0.0019761,-0.000123083)">
        <g id="Artboard1" transform="matrix(1.2519,0,0,0.361527,-626.097,-348.667)">
            <rect x="500.119" y="964.429" width="1344.14" height="1159.58" style="fill:white;"/>
            <g transform="matrix(0.38326,0,0,2.76605,881.416,-59.5031)">
                <path d="M85.897,579.788L1254.32,579.788" style="fill:none;stroke:black;stroke-width:5.05px;"/>
            </g>
            <g transform="matrix(0.798789,0,0,2.76605,761.288,-464.614)">
                <ellipse cx="191.602" cy="726.246" rx="49.929" ry="49.07" style="fill:rgb(45,34,255);stroke:black;stroke-width:4.17px;"/>
            </g>
            <g transform="matrix(0.798789,0,0,2.76605,928.295,-464.614)">
                <ellipse cx="191.602" cy="726.246" rx="49.929" ry="49.07" style="fill:rgb(45,34,255);stroke:black;stroke-width:4.17px;"/>
            </g>
            <g transform="matrix(0.798789,0,0,2.76605,1095.17,-464.614)">
                <ellipse cx="191.602" cy="726.246" rx="49.929" ry="49.07" style="fill:rgb(45,34,255);stroke:black;stroke-width:4.17px;"/>
            </g>
            <g transform="matrix(0.798789,0,0,2.76605,1248.98,-464.614)">
                <ellipse cx="191.602" cy="726.246" rx="49.929" ry="49.07" style="fill:rgb(45,34,255);stroke:black;stroke-width:4.17px;"/>
            </g>
            <g transform="matrix(0.798789,0,0,2.76605,1386.05,1844.36)">
                <text x="0px" y="0px" style="font-family:'ArialMT', 'Arial', sans-serif;font-size:50px;">main</text>
            </g>
        </g>
    </g>
</svg>
