<?xml version="1.0" encoding="UTF-8" standalone="no"?>
<!DOCTYPE svg PUBLIC "-//W3C//DTD SVG 1.1//EN" "http://www.w3.org/Graphics/SVG/1.1/DTD/svg11.dtd">
<svg width="100%" height="100%" viewBox="0 0 1764 420" version="1.1" xmlns="http://www.w3.org/2000/svg" xmlns:xlink="http://www.w3.org/1999/xlink" xml:space="preserve" xmlns:serif="http://www.serif.com/" style="fill-rule:evenodd;clip-rule:evenodd;stroke-linecap:round;stroke-linejoin:round;stroke-miterlimit:1.5;">
    <g transform="matrix(1,0,0,1,0.0008482,-0.000123083)">
        <g id="Artboard1" transform="matrix(1.3122,0,0,0.361527,-656.257,-348.667)">
            <rect x="500.119" y="964.429" width="1344.14" height="1159.58" style="fill:white;"/>
            <g transform="matrix(0.975308,0,0,2.76605,476.724,166.656)">
                <path d="M85.897,579.788L1254.32,579.788" style="fill:none;stroke:black;stroke-width:3.45px;"/>
            </g>
            <g transform="matrix(0.762079,0,0,2.76605,414.485,-238.455)">
                <ellipse cx="191.602" cy="726.246" rx="49.929" ry="49.07" style="fill:rgb(45,34,255);stroke:black;stroke-width:4.17px;"/>
            </g>
            <g transform="matrix(0.762079,0,0,2.76605,573.817,-238.455)">
                <ellipse cx="191.602" cy="726.246" rx="49.929" ry="49.07" style="fill:rgb(45,34,255);stroke:black;stroke-width:4.17px;"/>
            </g>
            <g transform="matrix(0.762079,0,0,2.76605,733.028,-238.455)">
                <ellipse cx="191.602" cy="726.246" rx="49.929" ry="49.07" style="fill:rgb(45,34,255);stroke:black;stroke-width:4.17px;"/>
            </g>
            <g transform="matrix(0.762079,0,0,2.76605,1592.11,-238.455)">
                <ellipse cx="191.602" cy="726.246" rx="49.929" ry="49.07" style="fill:rgb(45,34,255);stroke:black;stroke-width:4.17px;"/>
            </g>
            <g transform="matrix(0.762079,0,0,2.76605,495.821,711.565)">
                <path d="M585.903,382.789C684.924,365.737 702.627,165.152 834.901,171.32" style="fill:none;stroke:black;stroke-width:4.17px;"/>
            </g>
            <g transform="matrix(0.762079,0,0,-2.76605,909.837,2243.87)">
                <path d="M585.903,382.789C684.924,365.737 702.627,165.152 834.901,171.32" style="fill:none;stroke:black;stroke-width:4.17px;"/>
            </g>
            <g transform="matrix(0.762079,0,0,2.76605,1006.93,-823.773)">
                <ellipse cx="191.602" cy="726.246" rx="49.929" ry="49.07" style="fill:rgb(222,34,255);stroke:black;stroke-width:4.17px;"/>
            </g>
            <g transform="matrix(0.762079,0,0,2.76605,1171.51,-823.773)">
                <ellipse cx="191.602" cy="726.246" rx="49.929" ry="49.07" style="fill:rgb(222,34,255);stroke:black;stroke-width:4.17px;"/>
            </g>
            <g transform="matrix(0.762079,0,0,2.76605,1710.89,2078.87)">
                <text x="0px" y="0px" style="font-family:'ArialMT', 'Arial', sans-serif;font-size:50px;">main</text>
            </g>
            <g transform="matrix(0.762079,0,0,2.76605,764.349,1199.94)">
                <text x="0px" y="0px" style="font-family:'ArialMT', 'Arial', sans-serif;font-size:50px;">more_beer</text>
            </g>
            <g transform="matrix(0.762079,0,0,2.76605,1457.93,-814.819)">
                <g transform="matrix(1,0,0,1,35.968,697.952)">
                    <text x="0px" y="0px" style="font-family:'ArialMT', 'Arial', sans-serif;font-size:50px;">Merge back</text>
                </g>
                <g transform="matrix(1,0,0,1,35.968,749.588)">
                    <text x="0px" y="0px" style="font-family:'ArialMT', 'Arial', sans-serif;font-size:50px;">into main</text>
                </g>
            </g>
            <g transform="matrix(0.762079,0,0,2.76605,489.705,166.656)">
                <path d="M920.458,368.179L1036.34,368.179" style="fill:none;stroke:black;stroke-width:4.17px;"/>
            </g>
            <g transform="matrix(0.762079,0,0,2.76605,500.119,964.429)">
                <g>
                    <path d="M629.526,160.907L642.684,185.567L615.061,181.298C623.775,179.816 631.007,169.621 629.526,160.907Z"/>
                    <path d="M536.442,110.199C536.442,110.199 596.589,152.868 626.371,173.995" style="fill:none;stroke:black;stroke-width:4.17px;"/>
                </g>
            </g>
            <g transform="matrix(0.762079,0,0,2.76604,500.119,964.429)">
                <g>
                    <path d="M1318.95,205.287L1292.81,215.175L1300.59,188.328C1300.94,197.159 1310.12,205.639 1318.95,205.287Z"/>
                    <path d="M1372.53,128.833C1372.53,128.833 1329.13,175.834 1306.38,200.481" style="fill:none;stroke:black;stroke-width:4.17px;"/>
                </g>
            </g>
        </g>
    </g>
</svg>
