<?xml version="1.0" encoding="UTF-8" standalone="no"?>
<!DOCTYPE svg PUBLIC "-//W3C//DTD SVG 1.1//EN" "http://www.w3.org/Graphics/SVG/1.1/DTD/svg11.dtd">
<svg width="100%" height="100%" viewBox="0 0 1087 969" version="1.1" xmlns="http://www.w3.org/2000/svg" xmlns:xlink="http://www.w3.org/1999/xlink" xml:space="preserve" xmlns:serif="http://www.serif.com/" style="fill-rule:evenodd;clip-rule:evenodd;stroke-miterlimit:10;">
    <g id="Artboard1" transform="matrix(0.929329,0,0,1.03606,-621.836,-1270.64)">
        <rect x="669.124" y="1226.41" width="1169.33" height="934.641" style="fill:none;"/>
        <g transform="matrix(4.48352,0,0,3.04147,502.501,1170.52)">
            <path d="M290,43C290,34.716 283.284,28 275,28L60,28C51.716,28 45,34.716 45,43L45,300C45,308.284 51.716,315 60,315L275,315C283.284,315 290,308.284 290,300L290,43Z" style="fill:rgb(181,181,181);fill-rule:nonzero;"/>
        </g>
        <g transform="matrix(4.48352,0,0,4.02163,1133.89,2062.88)">
            <text x="0px" y="0px" style="font-family:'Helvetica';font-size:12px;">repository</text>
        </g>
        <g id="Layer_4" transform="matrix(4.48352,0,0,4.02163,-1137.11,1313.33)">
            <path d="M487.13,71.882C487.13,62.614 509.537,55.101 537.177,55.101C564.818,55.101 587.224,62.614 587.224,71.882L587.224,72.912L587.224,34.052L587.224,34.44C587.224,25.172 564.818,17.659 537.177,17.659C509.537,17.659 487.13,25.172 487.13,34.44L487.13,34.052L487.13,72.912L487.13,71.882Z" style="fill:url(#_Linear1);fill-rule:nonzero;stroke:rgb(35,31,32);stroke-width:1px;"/>
            <g>
                <path d="M587.021,111.284L587.021,147.023C587.021,148.026 587.375,150.145 587.375,150.145C587.375,159.413 564.615,166.924 536.975,166.924C509.335,166.924 486.576,159.412 486.576,150.145C486.576,150.145 486.929,148.222 486.929,147.013L486.929,111.284C486.929,120.552 509.336,128.064 536.976,128.064C564.614,128.064 587.021,120.551 587.021,111.284Z" style="fill:white;fill-rule:nonzero;stroke:rgb(35,31,32);stroke-width:1px;"/>
            </g>
            <g>
                <path d="M587.021,72.601L587.021,108.34C587.021,109.342 587.375,111.46 587.375,111.46C587.375,120.728 564.615,128.24 536.975,128.24C509.335,128.24 486.576,120.727 486.576,111.46C486.576,111.46 486.929,109.537 486.929,108.328L486.929,72.6C486.929,81.868 509.336,89.38 536.976,89.38C564.614,89.381 587.021,81.869 587.021,72.601Z" style="fill:white;fill-rule:nonzero;stroke:rgb(35,31,32);stroke-width:1px;"/>
            </g>
            <g>
                <path d="M587.021,33.628L587.021,69.367C587.021,70.369 587.375,72.487 587.375,72.487C587.375,81.756 564.615,89.268 536.975,89.268C509.335,89.268 486.576,81.755 486.576,72.487C486.576,72.487 486.929,70.565 486.929,69.356L486.929,33.628C486.929,42.896 509.336,50.408 536.976,50.408C564.614,50.409 587.021,42.896 587.021,33.628Z" style="fill:white;fill-rule:nonzero;stroke:rgb(35,31,32);stroke-width:1px;"/>
            </g>
            <g>
                <path d="M573.216,26.381L513.908,26.381L500.732,40.875L560.039,40.875L573.216,26.381Z" style="fill:white;fill-rule:nonzero;stroke:black;stroke-width:1px;"/>
                <path d="M513.908,32.311L562.662,32.311" style="fill:none;fill-rule:nonzero;stroke:rgb(112,191,65);stroke-width:2px;stroke-miterlimit:4;"/>
            </g>
        </g>
        <g transform="matrix(4.48352,0,0,4.02163,1187.91,1920.74)">
            <text x="0px" y="0px" style="font-family:'LucidaGrande', 'Lucida Grande', sans-serif;font-weight:500;font-size:8.606px;fill:rgb(35,31,32);">892134f</text>
        </g>
        <g transform="matrix(4.48352,0,0,4.02163,1188.67,1765.13)">
            <text x="0px" y="0px" style="font-family:'LucidaGrande', 'Lucida Grande', sans-serif;font-weight:500;font-size:8.606px;fill:rgb(35,31,32);">f22b25e</text>
        </g>
        <g transform="matrix(4.48352,0,0,4.02163,1188.82,1604.63)">
            <text x="0px" y="0px" style="font-family:'LucidaGrande', 'Lucida Grande', sans-serif;font-weight:500;font-size:8.606px;fill:rgb(35,31,32);">3a54f76</text>
        </g>
        <g transform="matrix(4.48352,0,0,4.02163,740.589,1368.01)">
            <text x="0px" y="0px" style="font-family:'LucidaGrande', 'Lucida Grande', sans-serif;font-weight:500;font-size:18px;">.git</text>
        </g>
    </g>
    <defs>
        <linearGradient id="_Linear1" x1="0" y1="0" x2="1" y2="0" gradientUnits="userSpaceOnUse" gradientTransform="matrix(3.38323e-15,55.2524,-55.2524,3.38323e-15,537.177,17.6602)"><stop offset="0" style="stop-color:rgb(196,196,196);stop-opacity:1"/><stop offset="0.1" style="stop-color:rgb(196,196,196);stop-opacity:1"/><stop offset="0.53" style="stop-color:rgb(104,104,104);stop-opacity:1"/><stop offset="1" style="stop-color:black;stop-opacity:1"/></linearGradient>
    </defs>
</svg>
